<svg width="60" height="60" viewBox="0 0 60 60" fill="none" xmlns="http://www.w3.org/2000/svg">
  <!-- Push-up icon -->
  <g id="pushup" transform="translate(0,0)">
    <rect x="10" y="25" width="40" height="10" rx="5" fill="currentColor" opacity="0.2"/>
    <circle cx="15" cy="30" r="3" fill="currentColor"/>
    <circle cx="45" cy="30" r="3" fill="currentColor"/>
    <path d="M15 30L45 30" stroke="currentColor" stroke-width="2"/>
  </g>
  
  <!-- Squat icon -->
  <g id="squat" transform="translate(0,60)">
    <circle cx="30" cy="20" r="8" fill="currentColor" opacity="0.2"/>
    <rect x="25" y="28" width="10" height="20" rx="5" fill="currentColor" opacity="0.2"/>
    <path d="M20 45L40 45" stroke="currentColor" stroke-width="3"/>
  </g>
  
  <!-- Crunch icon -->
  <g id="crunch" transform="translate(60,0)">
    <rect x="15" y="25" width="30" height="10" rx="5" fill="currentColor" opacity="0.2"/>
    <circle cx="30" cy="30" r="5" fill="currentColor"/>
    <path d="M25 35L35 35" stroke="currentColor" stroke-width="2"/>
  </g>
  
  <!-- Plank icon -->
  <g id="plank" transform="translate(60,60)">
    <rect x="10" y="28" width="40" height="4" rx="2" fill="currentColor"/>
    <circle cx="15" cy="30" r="2" fill="currentColor"/>
    <circle cx="45" cy="30" r="2" fill="currentColor"/>
  </g>
</svg>
