<svg width="48" height="48" viewBox="0 0 48 48" fill="none" xmlns="http://www.w3.org/2000/svg">
  <!-- Breakfast icon -->
  <g id="breakfast">
    <circle cx="24" cy="24" r="20" fill="currentColor" opacity="0.1"/>
    <path d="M12 20C12 16 15 12 20 12H28C33 12 36 16 36 20V28C36 32 33 36 28 36H20C15 36 12 32 12 28V20Z" fill="currentColor" opacity="0.2"/>
    <path d="M16 18H32V22H16V18Z" fill="currentColor"/>
    <path d="M18 24H30V26H18V24Z" fill="currentColor"/>
    <path d="M20 28H28V30H20V28Z" fill="currentColor"/>
  </g>
  
  <!-- Lunch icon -->
  <g id="lunch" transform="translate(48,0)">
    <circle cx="24" cy="24" r="20" fill="currentColor" opacity="0.1"/>
    <path d="M12 16C12 14 13 12 15 12H33C35 12 36 14 36 16V32C36 34 35 36 33 36H15C13 36 12 34 12 32V16Z" fill="currentColor" opacity="0.2"/>
    <circle cx="24" cy="24" r="8" fill="currentColor"/>
  </g>
  
  <!-- Dinner icon -->
  <g id="dinner" transform="translate(0,48)">
    <circle cx="24" cy="24" r="20" fill="currentColor" opacity="0.1"/>
    <path d="M12 20C12 18 13 16 15 16H33C35 16 36 18 36 20V28C36 30 35 32 33 32H15C13 32 12 30 12 28V20Z" fill="currentColor" opacity="0.2"/>
    <path d="M16 20L32 20" stroke="currentColor" stroke-width="2"/>
    <path d="M16 24L32 24" stroke="currentColor" stroke-width="2"/>
    <path d="M16 28L32 28" stroke="currentColor" stroke-width="2"/>
  </g>
  
  <!-- Snack icon -->
  <g id="snack" transform="translate(48,48)">
    <circle cx="24" cy="24" r="20" fill="currentColor" opacity="0.1"/>
    <rect x="16" y="16" width="16" height="16" rx="2" fill="currentColor" opacity="0.2"/>
    <circle cx="20" cy="20" r="2" fill="currentColor"/>
    <circle cx="28" cy="20" r="2" fill="currentColor"/>
    <circle cx="20" cy="28" r="2" fill="currentColor"/>
    <circle cx="28" cy="28" r="2" fill="currentColor"/>
  </g>
</svg>
