<svg width="24" height="24" viewBox="0 0 24 24" fill="none" xmlns="http://www.w3.org/2000/svg">
  <path d="M8 6C8 4.89543 8.89543 4 10 4H14C15.1046 4 16 4.89543 16 6V18C16 19.1046 15.1046 20 14 20H10C8.89543 20 8 19.1046 8 18V6Z" stroke="currentColor" stroke-width="2"/>
  <path d="M12 4V20" stroke="currentColor" stroke-width="2"/>
  <path d="M6 8C6 6.89543 6.89543 6 8 6H16C17.1046 6 18 6.89543 18 8V16C18 17.1046 17.1046 18 16 18H8C6.89543 18 6 17.1046 6 16V8Z" stroke="currentColor" stroke-width="1" stroke-dasharray="2 2"/>
</svg>
