<svg width="24" height="24" viewBox="0 0 24 24" fill="none" xmlns="http://www.w3.org/2000/svg">
  <path d="M12 2C13.1 2 14 2.9 14 4C14 5.1 13.1 6 12 6C10.9 6 10 5.1 10 4C10 2.9 10.9 2 12 2Z" stroke="currentColor" stroke-width="2"/>
  <path d="M12 18C13.1 18 14 18.9 14 20C14 21.1 13.1 22 12 22C10.9 22 10 21.1 10 20C10 18.9 10.9 18 12 18Z" stroke="currentColor" stroke-width="2"/>
  <path d="M4 12C4 10.9 4.9 10 6 10C7.1 10 8 10.9 8 12C8 13.1 7.1 14 6 14C4.9 14 4 13.1 4 12Z" stroke="currentColor" stroke-width="2"/>
  <path d="M18 12C18 10.9 18.9 10 20 10C21.1 10 22 10.9 22 12C22 13.1 21.1 14 20 14C18.9 14 18 13.1 18 12Z" stroke="currentColor" stroke-width="2"/>
  <path d="M12 6V18" stroke="currentColor" stroke-width="2"/>
  <path d="M6 12H18" stroke="currentColor" stroke-width="2"/>
</svg>
